<?xml version="1.0" encoding="UTF-8" standalone="no"?>
<!-- Created with Inkscape (http://www.inkscape.org/) -->

<svg
   xmlns:dc="http://purl.org/dc/elements/1.1/"
   xmlns:cc="http://creativecommons.org/ns#"
   xmlns:rdf="http://www.w3.org/1999/02/22-rdf-syntax-ns#"
   xmlns:svg="http://www.w3.org/2000/svg"
   xmlns="http://www.w3.org/2000/svg"
   xmlns:inkscape="http://www.inkscape.org/namespaces/inkscape"
   version="1.1"
   width="744.09448"
   height="1052.3622"
   id="svg2">
  <defs
     id="defs4">
    <inkscape:path-effect
       effect="skeletal"
       id="path-effect3222" />
    <inkscape:path-effect
       effect="skeletal"
       id="path-effect3220" />
    <inkscape:path-effect
       effect="skeletal"
       id="path-effect3218" />
    <inkscape:path-effect
       effect="skeletal"
       id="path-effect3216" />
    <inkscape:path-effect
       effect="skeletal"
       id="path-effect3214" />
    <inkscape:path-effect
       effect="skeletal"
       id="path-effect3212" />
    <inkscape:path-effect
       effect="skeletal"
       id="path-effect3081" />
    <inkscape:path-effect
       effect="skeletal"
       id="path-effect3077" />
    <inkscape:path-effect
       effect="skeletal"
       id="path-effect3073" />
    <inkscape:path-effect
       effect="skeletal"
       id="path-effect3069" />
    <inkscape:path-effect
       effect="skeletal"
       id="path-effect3065" />
    <inkscape:path-effect
       effect="skeletal"
       id="path-effect3061" />
    <inkscape:path-effect
       effect="skeletal"
       id="path-effect3019" />
    <inkscape:path-effect
       effect="skeletal"
       id="path-effect3015" />
    <inkscape:path-effect
       effect="skeletal"
       id="path-effect3011" />
    <inkscape:path-effect
       effect="skeletal"
       id="path-effect3007" />
  </defs>
  <metadata
     id="metadata7">
    <rdf:RDF>
      <cc:Work
         rdf:about="">
        <dc:format>image/svg+xml</dc:format>
        <dc:type
           rdf:resource="http://purl.org/dc/dcmitype/StillImage" />
        <dc:title></dc:title>
      </cc:Work>
    </rdf:RDF>
  </metadata>
  <g
     id="layer1"
     style="display:none">
    <path
       d="m 56.57143,87.21933 c 0.530988,1.24091 -2.302157,3.725684 -7.053768,6.984066 -2.375806,1.629191 -5.221769,3.459744 -8.303995,5.506255 -3.082225,2.046509 -6.396697,4.310049 -9.712901,6.862189 -0.300595,0.22817 -0.601713,0.45873 -0.90332,0.6916 -3.439056,2.65534 -6.622582,5.36464 -9.545077,7.88419 -2.922495,2.51955 -5.583852,4.84484 -7.915306,6.74652 -2.331455,1.90168 -4.3310374,3.379 -5.8839378,4.25728 -1.5529003,0.87828 -2.6578081,1.15981 -3.1816952,0.71076 -0.5238871,-0.44905 -0.4189311,-1.58571 0.2362547,-3.25934 0.6551857,-1.67364 1.8594411,-3.88673 3.5789236,-6.4608 1.7194825,-2.57408 3.9560087,-5.51117 6.7167787,-8.56754 2.760771,-3.05638 6.050504,-6.231 9.867221,-9.206285 0.334728,-0.260933 0.670709,-0.518141 1.007796,-0.771511 3.795515,-2.818215 7.64309,-5.054616 11.239816,-6.801695 3.596726,-1.747079 6.94269,-3.009481 9.807033,-3.875623 2.864344,-0.866141 5.249159,-1.337588 6.977806,-1.451414 1.728646,-0.113825 2.802877,0.130893 3.068371,0.751348 z"
       id="standing_rhand"
       style="opacity:0.98706863;fill:#0c00de;fill-opacity:1;fill-rule:nonzero;stroke:none" />
    <path
       d="m 73.71429,90.07647 c 0.110406,-0.68111 1.03872,-1.213204 2.674096,-1.46845 1.635376,-0.255245 3.976372,-0.220075 6.788642,0.286352 2.81227,0.506426 6.090822,1.492648 9.527625,3.021934 3.436802,1.529285 7.025453,3.602465 10.472177,6.094378 0.55814,0.40353 1.1042,0.811487 1.6378,1.222387 0,1e-6 0,1e-6 0,2e-6 3.18711,2.424567 5.97553,4.958967 8.33968,7.390597 2.36415,2.43164 4.30666,4.76019 5.80675,6.81715 3.00019,4.11391 4.26095,7.12792 3.32465,8.06422 -0.9363,0.9363 -3.91903,-0.3838 -8.0648,-3.11767 -4.14577,-2.73387 -9.42171,-6.86562 -15.349813,-11.13938 -1e-6,0 -1e-6,0 -2e-6,0 -0.504527,-0.35893 -1.013563,-0.72025 -1.526727,-1.08299 -3.168929,-2.24 -6.196294,-4.31084 -8.982251,-6.09618 -2.785957,-1.78534 -5.3341,-3.285968 -7.518135,-4.535275 -2.184036,-1.249306 -4.00558,-2.255508 -5.270284,-3.133875 -1.264703,-0.878368 -1.969814,-1.64209 -1.859408,-2.3232 z"
       id="standing_lhand"
       style="opacity:0.98706863;fill:#0c00de;fill-opacity:1;fill-rule:nonzero;stroke:none" />
    <path
       d="m 56.57143,92.93361 c 0.417282,0.120963 0.622493,0.916455 0.655144,2.297331 0.03265,1.380876 -0.108955,3.348162 -0.339221,5.811819 -0.230265,2.46366 -0.55126,5.42389 -0.800965,8.78059 -0.249705,3.3567 -0.428901,7.10928 -0.276585,11.15074 0.126655,2.46888 0.314633,5.02272 0.754519,7.48683 0.439886,2.4641 1.131935,4.8375 2.352034,6.8985 0.715544,1.24227 1.532524,2.35468 2.488895,3.10474 0.770898,0.62764 1.672222,1.11817 2.591831,1.36362 1.254355,0.43172 2.823244,0.33827 4.454878,-0.0895 0.655589,-0.17187 1.313533,-0.39536 1.955603,-0.65428 2.67973,-1.1461 5.023989,-3.2269 6.868414,-5.59857 2.21017,-2.88162 3.572874,-6.30329 4.117775,-9.63696 0.393363,-2.28142 0.375787,-4.58114 0.103313,-6.78188 -0.272475,-2.20073 -0.799911,-4.30238 -1.457299,-6.23298 -10e-7,0 -10e-7,0 -2e-6,0 -0.924011,-2.72733 -2.124541,-5.12524 -3.31007,-7.21487 -1.18553,-2.08964 -2.357533,-3.870922 -3.327136,-5.355782 -0.969602,-1.484859 -1.739007,-2.673855 -2.19339,-3.566196 -0.454382,-0.892342 -0.595342,-1.489444 -0.352028,-1.763172 0.243314,-0.273728 0.859456,-0.210953 1.805703,0.195408 0.946246,0.40636 2.224209,1.156629 3.738605,2.304646 1.514395,1.148016 3.26751,2.694628 5.080681,4.731706 1.81317,2.03707 3.68801,4.56597 5.332171,7.69994 10e-7,0 10e-7,0 2e-6,1e-5 1.17878,2.26005 2.187552,4.84179 2.844216,7.70333 0.656664,2.86154 0.960627,6.00327 0.699675,9.32641 -0.407949,4.82802 -2.075994,9.86908 -5.206905,14.32383 -2.543775,3.65585 -6.136502,6.90101 -10.659466,8.98174 -1.122429,0.53157 -2.316756,0.963 -3.564724,1.275 -3.105951,0.7765 -6.459237,0.78686 -9.736529,-0.11565 -2.354422,-0.7185 -4.455969,-1.9221 -6.201933,-3.46897 -2.049938,-1.84732 -3.551634,-3.97062 -4.593575,-6.1334 -1.596181,-3.39542 -2.42483,-6.7807 -2.812859,-9.98472 -0.388029,-3.20401 -0.336552,-6.227 -0.101969,-8.97124 0.329831,-4.53284 1.068804,-8.5698 1.934734,-12.06461 0.865931,-3.49482 1.859436,-6.44886 2.801869,-8.825775 0.942433,-2.37692 1.835823,-4.177674 2.584089,-5.358051 0.748266,-1.180377 1.353223,-1.740567 1.770505,-1.619604 z"
       id="standing_body"
       style="opacity:0.98706863;fill:#0c00de;fill-opacity:1;fill-rule:nonzero;stroke:none" />
    <path
       d="m 56.148123,149.03305 c 0.537937,0.43212 0.458819,1.54666 0.01821,3.18652 -0.440611,1.63987 -1.227873,3.81563 -2.093186,6.49226 -0.865312,2.67663 -1.802678,5.86366 -2.6897,9.49076 -0.887023,3.62711 -1.726924,7.69796 -2.562361,12.00526 -0.0054,0.0279 -0.01083,0.0558 -0.01624,0.0838 -0.798474,4.30579 -1.49649,8.49367 -2.243946,12.3427 -0.747456,3.84904 -1.546338,7.35385 -2.408449,10.27576 -0.862111,2.92191 -1.782132,5.2581 -2.65978,6.81629 -0.877648,1.55819 -1.703855,2.34008 -2.38019,2.2092 -0.676335,-0.13088 -1.140372,-1.155 -1.446176,-2.87638 -0.305804,-1.72139 -0.462508,-4.14133 -0.508051,-7.11744 -0.04554,-2.97611 0.01593,-6.51276 0.267563,-10.47573 0.251631,-3.96296 0.697019,-8.35672 1.544541,-12.98607 0.0053,-0.0301 0.01058,-0.0602 0.0159,-0.0904 0.820263,-4.64812 2.05317,-9.11039 3.595961,-13.02324 1.542791,-3.91285 3.389488,-7.27091 5.242049,-9.8723 1.85256,-2.6014 3.698586,-4.44978 5.185441,-5.51973 1.486854,-1.06995 2.600484,-1.37336 3.138421,-0.94124 z"
       id="standing_rleg"
       style="opacity:0.98706863;fill:#0c00de;fill-opacity:1;fill-rule:nonzero;stroke:none" />
    <path
       d="m 71.04397,150.67091 c 0.55477,-0.41028 1.594131,-0.13649 2.960325,0.82248 1.366195,0.95897 3.053498,2.61087 4.766273,4.94359 1.712775,2.33273 3.444182,5.35112 4.855368,8.93257 1.411185,3.58144 2.495201,7.72599 2.974817,12.16327 0.02586,0.2393 0.04987,0.4782 0.07203,0.71664 0.380334,4.30445 0.249313,8.35217 -0.139505,11.96009 -0.388817,3.60792 -1.031498,6.77985 -1.743953,9.39502 -0.712454,2.61516 -1.495817,4.67687 -2.25609,6.07072 -0.760273,1.39384 -1.501356,2.12042 -2.177331,2.04037 -0.675975,-0.08 -1.224514,-0.96221 -1.644,-2.48662 -0.419487,-1.52441 -0.706056,-3.69158 -0.898648,-6.31655 -0.192591,-2.62498 -0.289609,-5.70504 -0.415999,-9.04787 -0.126391,-3.34283 -0.285441,-6.94434 -0.676137,-10.65823 -0.01999,-0.19988 -0.04078,-0.40023 -0.06239,-0.60101 -0.40074,-3.72316 -1.05039,-7.24347 -1.802609,-10.43432 -0.752219,-3.19086 -1.605905,-6.05221 -2.358749,-8.49563 -0.752844,-2.44342 -1.401969,-4.47284 -1.717393,-6.00888 -0.315424,-1.53604 -0.290784,-2.58536 0.263986,-2.99564 z"
       id="standing_lleg"
       style="opacity:0.98706863;fill:#0c00de;fill-opacity:1;fill-rule:nonzero;stroke:none" />
    <path
       d="m 79.07143,83.29076 c -0.128625,0.289393 -0.80203,0.336279 -1.976764,0.116966 -1.174735,-0.219313 -2.853137,-0.704479 -4.946724,-1.554019 -2.093586,-0.84954 -4.60595,-2.063113 -7.357397,-3.819812 -2.751446,-1.756698 -5.745294,-4.056694 -8.657563,-7.161289 -2.099858,-2.25631 -4.092994,-4.948214 -5.759583,-8.07723 -1.666589,-3.129017 -3.006428,-6.695909 -3.746689,-10.636581 -1.095028,-6.015604 -0.772701,-12.681317 1.215287,-19.204771 10e-7,-2e-6 2e-6,-5e-6 3e-6,-7e-6 1.69586,-5.6147 4.557992,-11.169028 8.630844,-16.07717 3.329573,-4.086687 7.704685,-7.8371424 13.209401,-10.2251127 2.333537,-1.0047447 4.944433,-1.6806551 7.747658,-1.8393189 0.886015,-0.046435 1.780029,-0.02884 2.67451,0.054885 1.796796,0.168183 3.579055,0.6018434 5.286858,1.3025918 2.787824,1.1938398 5.124397,2.9596548 6.945698,5.0284342 2.289747,2.609416 3.890558,5.47703 5.004043,8.304289 1.800865,4.579946 2.783808,9.165672 3.301738,13.593183 0.51793,4.427511 0.57189,8.696705 0.44818,12.694952 0,3e-6 0,5e-6 0,8e-6 -0.0848,5.78744 -1.475921,11.425503 -4.088245,16.19084 -2.699599,4.766235 -6.338548,8.255241 -9.971618,10.805134 -10e-7,10e-7 -3e-6,2e-6 -5e-6,4e-6 -2.381857,1.675177 -4.729171,3.001636 -6.956137,4.110152 -2.226967,1.108515 -4.334163,1.998716 -6.272649,2.754397 -2.35698,0.92372 -4.48132,1.659081 -6.342442,2.255978 -1.861122,0.596897 -3.45962,1.054126 -4.774351,1.383503 -2.629462,0.658753 -4.128842,0.805989 -4.328333,0.357134 -0.199491,-0.448855 0.923674,-1.468045 3.196054,-2.949933 2.272379,-1.481889 5.713218,-3.391999 9.923552,-5.858031 1.730864,-1.017863 3.588895,-2.127337 5.489925,-3.379129 1.90103,-1.251791 3.845405,-2.645321 5.706623,-4.272758 10e-7,-1e-6 2e-6,-2e-6 4e-6,-4e-6 2.777255,-2.439608 5.437055,-5.412727 7.065828,-8.979373 1.684256,-3.506338 2.39761,-7.82076 2.312794,-12.417916 0,-2e-6 0,-4e-6 0,-6e-6 -0.12371,-3.789931 -0.325881,-7.672984 -0.860997,-11.487308 -0.535117,-3.814323 -1.403895,-7.5592 -2.93747,-11.043065 -0.911645,-2.070196 -1.957242,-3.974244 -3.306198,-5.402445 -1.02523,-1.089819 -2.181412,-1.994578 -3.388357,-2.459693 -0.718195,-0.306723 -1.52788,-0.494281 -2.372395,-0.569482 -0.420416,-0.03744 -0.847503,-0.04687 -1.273946,-0.02987 -1.402185,0.04459 -2.894324,0.453311 -4.383544,1.047839 -3.633555,1.435079 -6.839886,4.208555 -9.622824,7.331933 -3.300907,3.789639 -5.738421,8.157585 -7.293406,12.608127 -1e-6,2e-6 -1e-6,4e-6 -2e-6,6e-6 -1.776395,5.131805 -2.361734,10.374226 -1.799685,15.110295 0.340955,3.074628 1.184951,5.982897 2.314459,8.627095 1.129508,2.644199 2.544746,5.024725 4.074859,7.10549 2.134485,2.925247 4.487795,5.289743 6.699756,7.257544 2.211961,1.967801 4.285546,3.538243 6.004265,4.817875 1.718719,1.279633 3.086143,2.268203 3.979194,3.022168 0.893051,0.753965 1.314416,1.274109 1.185791,1.563502 z"
       id="standing_head"
       style="opacity:0.98706863;fill:#0c00de;fill-opacity:1;fill-rule:nonzero;stroke:none" />
  </g>
  <g
     id="layer2"
     style="display:inline">
    <path
       d="m 51.57143,128.21933 c 0.185662,0.43389 -0.03891,1.01881 -0.555016,1.74747 -0.516107,0.72865 -1.32412,1.60529 -2.288821,2.67027 -0.964701,1.06498 -2.087306,2.32092 -3.202352,3.80399 -1.115046,1.48307 -2.223093,3.19396 -3.114057,5.14011 -0.871069,1.8116 -1.587939,3.85626 -2.11715,6.10556 -0.529211,2.2493 -0.871979,4.70304 -1.03812,7.27102 -0.0079,0.12149 -0.01531,0.24287 -0.02235,0.36414 -0.289105,5.54269 0.38661,10.85123 1.235,15.41177 0.839691,4.39393 1.827751,8.02858 2.464749,10.69721 0.636997,2.66864 0.880156,4.41944 0.13812,4.93132 -0.371018,0.25594 -0.962343,0.17654 -1.730884,-0.24372 -0.768542,-0.42025 -1.712888,-1.18326 -2.743904,-2.29555 -1.031015,-1.11229 -2.146992,-2.57537 -3.236487,-4.37072 -1.089495,-1.79535 -2.150831,-3.9237 -3.075931,-6.32439 -0.972937,-2.49578 -1.810903,-5.31988 -2.365844,-8.39925 -0.55494,-3.07936 -0.825078,-6.41404 -0.672771,-9.88189 0.006,-0.15364 0.01302,-0.30759 0.02097,-0.46182 0.168126,-3.26036 0.765572,-6.45077 1.733748,-9.38357 0.968177,-2.9328 2.305743,-5.60622 3.875885,-7.90033 1.750815,-2.49687 3.740557,-4.4246 5.669336,-5.85765 1.928779,-1.43305 3.795605,-2.37523 5.395936,-2.95396 1.600331,-0.57874 2.934942,-0.79811 3.895581,-0.77856 0.960638,0.0195 1.548699,0.27466 1.734361,0.70855 z"
       id="i_rhand"
       style="opacity:0.98706863;fill:#0c00de;fill-opacity:1;fill-rule:nonzero;stroke:none;display:inline" />
    <path
       d="m 67.7778,127.99842 c 0.156156,-0.38706 0.673952,-0.62737 1.537665,-0.63894 0.863714,-0.0116 2.073795,0.21165 3.511898,0.80592 1.438102,0.59427 3.103296,1.56591 4.77787,3.01013 1.674574,1.44422 3.35607,3.36568 4.752891,5.73461 1.49674,2.50261 2.753173,5.45741 3.575399,8.73211 0.822225,3.27469 1.207909,6.86762 1.051016,10.54725 -0.05956,1.58383 -0.214014,3.18942 -0.468553,4.79989 -0.964246,6.10077 -3.290934,11.61633 -6.209507,15.99264 -2.043962,3.04917 -4.344245,5.52089 -6.592158,7.44703 -2.247913,1.92614 -4.441625,3.31022 -6.346076,4.25072 -1.90445,0.94051 -3.519473,1.44177 -4.698126,1.60903 -1.178653,0.16726 -1.921448,0.005 -2.165539,-0.44031 -0.244091,-0.44493 0.02347,-1.14077 0.666029,-2.064 0.642563,-0.92323 1.659743,-2.07836 2.889737,-3.49795 2.459987,-2.83917 5.802713,-6.77691 8.397411,-11.95558 1.888136,-3.73508 3.426436,-8.1346 4.181381,-12.90371 0.199289,-1.25894 0.339159,-2.50889 0.422528,-3.74135 0.176037,-2.88044 0.08132,-5.65887 -0.263673,-8.21487 -0.344992,-2.55599 -0.941211,-4.8896 -1.709855,-6.9576 -0.709421,-1.88061 -1.550841,-3.56801 -2.409398,-5.00187 -0.858557,-1.43385 -1.73535,-2.61783 -2.511446,-3.5928 -0.776096,-0.97496 -1.451461,-1.7468 -1.89435,-2.3848 -0.44289,-0.638 -0.6513,-1.14849 -0.495144,-1.53555 z"
       id="i_lhand"
       style="opacity:0.98706863;fill:#0c00de;fill-opacity:1;fill-rule:nonzero;stroke:none;display:inline" />
    <path
       d="m 51.07143,134.43361 c 0.374827,0.17601 0.495903,0.85833 0.408669,1.98225 -0.08723,1.12392 -0.384838,2.69053 -0.802455,4.63691 -0.417616,1.94638 -0.957743,4.2726 -1.448805,6.90896 -0.491062,2.63636 -0.934283,5.58212 -1.047715,8.76612 -0.03147,1.92579 0.007,3.91875 0.274975,5.81195 0.268007,1.8932 0.765529,3.68589 1.725852,5.15839 1.03338,1.76291 2.834405,3.29347 4.815737,3.85121 1.821036,0.61555 4.070508,0.55761 6.341929,0.0433 0.189868,-0.043 0.379201,-0.089 0.567726,-0.13782 2.62728,-0.73471 5.042261,-2.14947 6.897476,-3.94644 2.050469,-1.984 3.474264,-4.53396 4.034051,-7.06294 0.451027,-1.76267 0.464936,-3.62853 0.234138,-5.46119 -0.230799,-1.83265 -0.706398,-3.63174 -1.28569,-5.30417 0,0 0,0 -10e-7,0 -0.90724,-2.57312 -2.096096,-4.84043 -3.265096,-6.83136 -1.169,-1.99093 -2.319613,-3.70465 -3.263336,-5.14597 -0.943723,-1.44133 -1.683184,-2.61003 -2.111017,-3.49489 -0.427834,-0.88487 -0.546293,-1.4868 -0.290728,-1.77431 0.255565,-0.28751 0.872125,-0.24646 1.808782,0.12324 0.936658,0.3697 2.195429,1.06762 3.69095,2.14132 1.495521,1.07369 3.230588,2.52342 5.037368,4.44582 1.80678,1.92241 3.687236,4.31863 5.354148,7.32403 0,0 10e-7,0 2e-6,0 1.122417,2.01539 2.085884,4.34699 2.682953,6.95971 0.597068,2.61273 0.827101,5.50703 0.434858,8.58907 -0.652359,4.43497 -2.70489,8.84595 -6.089458,12.37051 -2.96054,3.08393 -6.808537,5.46252 -11.159701,6.69246 -0.312791,0.0923 -0.628947,0.17795 -0.948176,0.25666 -3.818988,0.9416 -7.924437,0.84209 -11.773825,-0.42072 -4.579567,-1.6156 -8.072239,-4.91671 -10.031201,-8.84062 -1.37737,-2.97019 -2.011103,-5.91194 -2.203663,-8.66301 -0.192559,-2.75107 0.05515,-5.31181 0.50147,-7.59466 0.672927,-3.74262 1.71735,-6.97734 2.836919,-9.7209 1.11957,-2.74356 2.31551,-4.99747 3.408157,-6.77559 1.092648,-1.77812 2.084532,-3.08127 2.88331,-3.90259 0.798777,-0.82132 1.40657,-1.16074 1.781397,-0.98473 z"
       id="i_body"
       style="opacity:0.98706863;fill:#0c00de;fill-opacity:1;fill-rule:nonzero;stroke:none;display:inline" />
    <path
       d="m 52.42857,188.93361 c 0.542299,0.63774 0.11844,2.07809 -1.31442,3.98963 -1.432859,1.91155 -3.90205,4.26679 -7.26598,6.51293 -0.498197,0.33455 -0.97122,0.64462 -1.393532,0.94324 -0.322591,0.24233 -0.432549,0.31342 -0.245811,0.24778 0,0 10e-7,0 10e-7,0 0.06806,0.0316 0.321561,-0.25922 0.792857,-0.8725 0.537148,-0.56506 0.682222,-1.67603 0.45119,-3.36782 -2e-6,-10e-6 -5e-6,-3e-5 -7e-6,-5e-5 -0.690279,-1.44614 -1.206,-2.19887 -1.582604,-2.22832 -0.430279,-0.26289 -0.637155,-0.39486 -0.624167,-0.36889 0.0232,-0.0129 0.27033,-0.0213 0.753902,0.0545 0.672429,0.0757 1.406422,0.14286 2.207198,0.22746 2.497848,0.26061 5.166014,0.58717 7.956596,1.03904 0.55611,0.0901 1.11552,0.18466 1.677771,0.28358 8.26919,1.45483 15.579963,3.58829 20.719242,5.66983 5.139279,2.08154 8.118043,4.09904 7.796334,5.44102 -0.321709,1.34198 -3.877177,1.75796 -9.345411,1.45759 -5.468234,-0.30036 -12.84553,-1.30361 -20.902153,-2.71987 -0.547798,-0.0963 -1.09177,-0.1933 -1.631565,-0.29089 -2.681331,-0.48544 -5.300917,-0.98308 -7.787966,-1.53143 -0.788309,-0.17328 -1.613282,-0.36065 -2.457224,-0.58295 -0.460486,-0.10973 -1.149313,-0.30163 -2.006256,-0.63021 -0.238786,-0.0643 -0.695461,-0.29689 -1.345062,-0.70884 -0.511081,-0.12085 -1.156892,-0.98939 -1.893334,-2.59053 -2e-6,-2e-5 -5e-6,-3e-5 -7e-6,-5e-5 -0.271353,-1.82717 -0.08229,-3.08545 0.528661,-3.77016 0.584124,-0.7962 1.001903,-1.23124 1.236563,-1.3329 10e-7,0 3e-6,0 4e-6,0 0.775352,-0.53632 1.32994,-0.81247 1.652432,-0.91869 0.62734,-0.26853 1.195456,-0.48262 1.706052,-0.67011 3.381929,-1.2447 6.167826,-2.35581 8.258938,-3.03062 2.091112,-0.67482 3.515459,-0.88951 4.057758,-0.25177 z"
       id="i_rleg"
       style="opacity:0.98706863;fill:#0c00de;fill-opacity:1;fill-rule:nonzero;stroke:none;display:inline" />
    <path
       d="m 75.28571,181.79075 c 0.245957,-0.58512 1.035776,-0.92912 2.328337,-0.96393 0.646281,-0.0174 1.420913,0.0466 2.323289,0.24892 0.902376,0.2023 1.933695,0.54231 3.078774,1.12734 0,0 10e-7,0 10e-7,0 0.703699,0.34214 1.522332,0.93211 2.380442,1.96857 0.634439,0.75796 1.094803,1.85959 1.213454,3.34435 -0.0244,1.35576 -0.323894,2.5259 -0.85741,3.38078 -0.569246,0.98454 -1.193257,1.77257 -1.772352,2.32881 -1.465097,1.47777 -3.107513,2.66654 -4.590921,3.61452 -2.200149,1.4502 -4.58438,2.83061 -7.011598,4.17211 -2.049222,1.13258 -3.996961,2.17332 -5.800417,3.17143 -10e-7,0 -10e-7,0 -2e-6,0 -4.534581,2.51973 -8.393741,4.76593 -11.313457,6.30973 -1.459859,0.7719 -2.694075,1.358 -3.679992,1.65704 -0.985918,0.29903 -1.726215,0.30831 -2.155288,-0.0739 -0.429073,-0.38226 -0.510356,-1.12959 -0.23269,-2.17328 0.277666,-1.04369 0.917495,-2.38179 1.931426,-3.89261 1.013931,-1.51081 2.403939,-3.19188 4.142932,-4.90247 1.738992,-1.71058 3.827189,-3.44844 6.181878,-5.08971 1e-6,0 1e-6,0 2e-6,0 1.907493,-1.33119 3.963672,-2.58126 6.08323,-3.75583 2.510528,-1.39124 4.915894,-2.58143 7.125625,-3.66192 1.535294,-0.78435 2.762335,-1.3066 3.638799,-1.87514 0.305874,-0.21714 0.491463,-0.2588 0.517515,-0.21542 -0.0437,0.0805 -0.01526,0.38232 -0.02413,0.86661 0.135319,0.54943 0.252588,0.76512 0.410192,0.78248 0.142367,-0.0752 -0.002,-0.33287 -0.239304,-0.71874 -10e-7,0 -10e-7,0 -10e-7,0 -0.44832,-0.64776 -0.978615,-1.23237 -1.479538,-1.781 -0.500922,-0.54863 -0.972777,-1.06003 -1.347745,-1.53493 -0.749937,-0.94979 -1.097004,-1.74864 -0.851047,-2.33376 z"
       id="i_lleg"
       style="opacity:0.98706863;fill:#0c00de;fill-opacity:1;fill-rule:nonzero;stroke:none;display:inline" />
    <path
       d="m 68.07143,123.35643 c -0.111002,0.30601 -0.750345,0.418 -1.87856,0.3188 -1.128216,-0.0992 -2.747558,-0.40814 -4.789237,-1.01422 -2.041679,-0.60608 -4.509271,-1.50767 -7.259221,-2.88696 -2.749949,-1.3793 -5.785638,-3.23542 -8.835329,-5.86503 -1e-6,0 -2e-6,0 -4e-6,-1e-5 -2.04189,-1.76329 -4.03418,-3.93082 -5.739733,-6.54208 -1.705552,-2.61125 -3.124448,-5.66692 -3.934619,-9.161667 -1.122049,-5.218409 -0.729895,-11.0085 1.325975,-16.462776 1e-6,-2e-6 2e-6,-4e-6 3e-6,-7e-6 1.848407,-4.932832 4.873458,-9.600396 8.861672,-13.514672 3.538386,-3.524265 7.968452,-6.547491 13.174074,-8.379758 3.029351,-1.105497 6.424232,-1.661016 9.932544,-1.395485 1.718462,0.130064 3.445781,0.456295 5.149503,0.998001 2.606451,0.896961 4.944789,2.312355 6.899423,4.103012 2.279939,2.118864 3.983993,4.556506 5.200244,7.057086 1.819055,3.808772 2.854584,7.671975 3.416581,11.412565 0.561996,3.740589 0.651287,7.358421 0.527158,10.728269 -0.07747,5.059445 -1.580691,9.936802 -4.229753,13.915372 -2.909377,4.18021 -6.57964,6.96286 -10.078279,8.92036 -2e-6,10e-6 -4e-6,10e-6 -5e-6,10e-6 -4.144895,2.3302 -8.049035,3.84284 -11.505041,4.97617 -3.456005,1.13334 -6.468329,1.88205 -8.941693,2.4213 -2.473365,0.53925 -4.412232,0.86123 -5.764986,0.97883 -1.352754,0.11759 -2.121909,0.0237 -2.244997,-0.31564 -0.123088,-0.33934 0.408333,-0.90873 1.540844,-1.67171 1.132511,-0.76298 2.87075,-1.7136 5.119345,-2.83335 2.248594,-1.11976 5.011689,-2.40067 8.084149,-3.95038 3.07246,-1.54971 6.456364,-3.36161 9.789012,-5.78143 10e-7,0 2e-6,0 3e-6,0 2.700948,-1.98072 5.355571,-4.31584 6.959167,-7.2264 1.530056,-2.587651 2.248757,-5.930893 2.171286,-9.433133 -0.124129,-3.078392 -0.334283,-6.209924 -0.85092,-9.22305 -0.516638,-3.013127 -1.340241,-5.907201 -2.753727,-8.478441 -0.868069,-1.613208 -1.885099,-3.074276 -3.109996,-4.129408 -1.004888,-0.889499 -2.189765,-1.599937 -3.434632,-2.008282 -0.802659,-0.307768 -1.686542,-0.476511 -2.624254,-0.528741 -1.914377,-0.106629 -4.010664,0.271344 -6.032608,0.890527 -3.571162,1.164419 -6.842745,3.356725 -9.658154,5.949098 -3.108606,2.917655 -5.546781,6.328129 -7.062577,9.896298 -10e-7,2e-6 -2e-6,3e-6 -2e-6,5e-6 -1.630717,3.861364 -2.233426,7.936676 -1.688997,11.542825 0.306684,2.419385 1.155902,4.710492 2.271406,6.796942 1.115504,2.08644 2.497679,3.9683 3.949831,5.61209 1e-6,0 2e-6,0 3e-6,0 2.235294,2.52383 4.639237,4.5127 6.876374,6.16461 2.237138,1.65191 4.310181,2.96503 6.021309,4.04901 1.711128,1.08398 3.063903,1.93721 3.949978,2.60765 0.886075,0.67044 1.308442,1.15779 1.19744,1.4638 z"
       id="i_head"
       style="opacity:0.98706863;fill:#0c00de;fill-opacity:1;fill-rule:nonzero;stroke:none;display:inline" />
  </g>
</svg>
